<svg xmlns="http://www.w3.org/2000/svg" viewBox="0 0 512 512" fill="white">
  <path d="M261.6 15.8c-26.1-.4-75.5 4.6-100 28.8C140.5 65.6 130 91.3 128 133.5c-2.2 42.2-2.7 126.8 72.5 145.3l.1.1-.1 32.2s-.5 13 8.1 15.6c10.4 3.2 16.5-6.7 26.5-17.4 5.5-5.8 13-14.4 18.7-20.9 51.4 4.3 90.9-5.5 95.4-7.1 10.4-3.5 69.2-10.9 78.8-89 9.9-80.8-4.8-131.8-31.8-155-0 0-25.7-19.4-60-25.5-25-4.4-57.3-6.5-74.6-6.8zM264 59.9c47.7-.7 89.5 11.5 109.8 29.9 22.6 19.4 35.9 64.6 27.1 135.6-7.9 65.1-55.6 69.7-64.3 72.7-3.7 1.3-37.4 9.7-80.4 6.9 0 0-31.8 38.4-41.8 48.4-1.6 1.6-3.4 2.2-4.6 1.9-1.7-.4-2.2-2.5-2.2-5.5l.3-52.5c-63.2-15.5-59.5-86.7-57.7-121.9 1.8-35.2 10.2-64.7 29.4-83.6 0 0 27-23.2 84.3-31.9z"/>
  <path d="M233.6 196.7c-5-.1-10.1 1.7-13.8 6.1l-.1.1c-5 5.5-6.7 11.6-5 17.4 1.7 5.9 5.8 10.6 9.3 14.3l.2.3c6.4 7.7 14 14.4 22.5 20.3l.3.3c8.8 6.1 18 11 28 14.9l.1.1c6.6 2.6 12.8 2.7 18-.2 5.8-3.2 10-8.1 11.9-14 1-3.1 0-6.1-2.3-8.5l-16.4-15.9c-2.6-2.2-5.9-2.2-8.5-.9l-9.1 5.4c-2.1 1.2-4.9.9-6.7-.5-3.5-2.8-7.4-6.5-10.4-10.1-1.4-1.5-3.4-4.8-4.7-6.5-1.4-1.8-1.6-4.4-.3-6.6l5.2-8.8c1.4-2.4 1.5-5.5-.4-7.9l-13.9-18c-1.5-2-3.5-2.9-5.5-3.1-.5-.1-1.1-.1-1.6-.1z"/>
  <path d="M280.3 138.5c-2.2 0-2.2 3.3 0 3.4 16.6.4 34.2 5.9 45.9 18.2 11.7 12.2 16.4 27.9 17.5 44.5.2 2.7 3.6 2.6 3.4-.1-1.2-18-6.3-35.1-19.3-48.5-12.9-13.4-31.3-19.5-47.5-20.1z"/>
  <path d="M281.6 164.4c-2 0-2.1 3 0 3.2 11.2.8 21.5 6.6 28.7 14.4 7.2 7.8 11.2 18 12 28.5.2 2.7 3.4 2.5 3.4-.1-.8-12-5.5-23.6-13.6-32.3-8.1-8.7-18.9-14.6-30.5-15.3z"/>
  <path d="M283.1 189.8c-1.7.2-1.8 2.6-.2 2.9 7 1.3 12.8 7 14.4 14.1.5 2.1 3.8 1.6 3.4-.5-1.9-8.8-8.8-15.5-17.6-16.5z"/>
</svg>
